# Made in Blockbench 5.1.4
mtllib boiler.mtl

o mesh
v 1.847202942322942 3.7420693830807648 1.84382103098951
v 1.847202942322942 3.7420693830807648 -0.8434031534741446
v 1.847202942322942 0.13358346208768213 1.84382103098951
v 1.847202942322942 0.13358346208768213 -0.8434031534741446
v -0.8466746086974661 3.7420693830807648 1.84382103098951
v -0.8466746086974661 3.7420693830807648 -0.8434031534741446
v -0.8466746086974661 0.13358346208768213 1.84382103098951
v -0.8466746086974661 0.13358346208768213 -0.8434031534741446
v 1.9696519219147788 3.8664999320805262 1.965967584828767
v 1.9696519219147788 3.8664999320805262 1.721674477150253
v 1.9696519219147788 0.13358346208768213 1.965967584828767
v 1.9696519219147788 0.13358346208768213 1.721674477150253
v 1.7247539627311053 3.8664999320805262 1.965967584828767
v 1.7247539627311053 3.8664999320805262 1.721674477150253
v 1.7247539627311053 0.13358346208768213 1.965967584828767
v 1.7247539627311053 0.13358346208768213 1.721674477150253
v -0.7242256291056295 3.8664999320805262 1.965967584828767
v -0.7242256291056295 3.8664999320805262 1.721674477150253
v -0.7242256291056295 0.13358346208768213 1.965967584828767
v -0.7242256291056295 0.13358346208768213 1.721674477150253
v -0.9691235882893028 3.8664999320805262 1.965967584828767
v -0.9691235882893028 3.8664999320805262 1.721674477150253
v -0.9691235882893028 0.13358346208768213 1.965967584828767
v -0.9691235882893028 0.13358346208768213 1.721674477150253
v -0.7242256291056295 3.8664999320805262 -0.7212565996348876
v -0.7242256291056295 3.8664999320805262 -0.9655497073134016
v -0.7242256291056295 0.13358346208768213 -0.7212565996348876
v -0.7242256291056295 0.13358346208768213 -0.9655497073134016
v -0.9691235882893028 3.8664999320805262 -0.7212565996348876
v -0.9691235882893028 3.8664999320805262 -0.9655497073134016
v -0.9691235882893028 0.13358346208768213 -0.7212565996348876
v -0.9691235882893028 0.13358346208768213 -0.9655497073134016
v 1.9696519219147788 3.8664999320805262 -0.7212565996348876
v 1.9696519219147788 3.8664999320805262 -0.9655497073134016
v 1.9696519219147788 0.13358346208768213 -0.7212565996348876
v 1.9696519219147788 0.13358346208768213 -0.9655497073134016
v 1.7247539627311053 3.8664999320805262 -0.7212565996348876
v 1.7247539627311053 3.8664999320805262 -0.9655497073134016
v 1.7247539627311053 0.13358346208768213 -0.7212565996348876
v 1.7247539627311053 0.13358346208768213 -0.9655497073134016
v -0.775692186262728 3.5554235595811274 1.945755234710337
v -0.775692186262728 3.9287152065804123 1.9457552347103362
v 1.995011935937621 3.5554235595811226 -0.8181057738754665
v 1.995011935937621 3.928715206580407 -0.8181057738754669
v -0.9488611939002496 3.5554235595811274 1.7730139216737246
v -0.9488611939002496 3.9287152065804123 1.7730139216737237
v 1.8218429283000994 3.5554235595811226 -0.9908470869120791
v 1.8218429283000994 3.928715206580407 -0.9908470869120798
v 0.8532834291126766 3.4932082850812436 0.11588132857943689
v 0.8532834291126766 3.990930481080289 0.11588132857943606
v 0.11858955156165446 3.4932082850812436 0.11588132857943656
v 0.11858955156165446 3.990930481080289 0.11588132857943567
v 0.8532834291126762 3.493208285081245 0.8487606516149788
v 0.8532834291126762 3.990930481080291 0.8487606516149779
v 0.11858955156165407 3.493208285081245 0.8487606516149785
v 0.11858955156165407 3.990930481080291 0.8487606516149777
v 2.0106140173216476 3.5554235595811274 1.8340871985933558
v 2.0106140173216476 3.9287152065804114 1.8340871985933553
v -0.7600901048787037 3.5554235595811226 -0.9297738099924493
v -0.7600901048787037 3.9287152065804065 -0.9297738099924497
v 1.8374450096841253 3.5554235595811274 2.0068285116299687
v 1.8374450096841253 3.9287152065804123 2.006828511629968
v -0.9332591125162253 3.5554235595811226 -0.7570324969558366
v -0.9332591125162253 3.928715206580407 -0.7570324969558371
v 0.8532834291126764 0.07136818758780383 1.8259330823290354
v 0.8532834291126764 0.8179514815863724 1.8259330823290343
v 0.1185895515616543 0.07136818758780383 1.8259330823290352
v 0.1185895515616543 0.8179514815863724 1.825933082329034
v 0.8532834291126764 0.07136818758780406 1.9480796361682924
v 0.8532834291126764 0.8179514815863729 1.948079636168291
v 0.11858955156165424 0.07136818758780406 1.9480796361682922
v 0.11858955156165424 0.8179514815863729 1.9480796361682908
v 0.6389977148269612 0.2891216483373864 1.8870063592486637
v 0.6389977148269612 0.6001980208367901 1.887006359248663
v 0.33287526584736943 0.2891216483373864 1.8870063592486634
v 0.33287526584736943 0.6001980208367901 1.887006359248663
v 0.6389977148269611 0.2891216483373866 2.00915291308792
v 0.6389977148269612 0.6001980208367903 2.0091529130879198
v 0.3328752658473694 0.2891216483373866 2.00915291308792
v 0.3328752658473694 0.6001980208367903 2.0091529130879198
v 0.6389977148269612 0.2891216483373864 -0.9834376559738767
v 0.6389977148269612 0.6001980208367901 -0.9834376559738773
v 0.33287526584736943 0.2891216483373864 -0.9834376559738769
v 0.33287526584736943 0.6001980208367901 -0.9834376559738773
v 0.6389977148269611 0.2891216483373866 -0.8612911021346199
v 0.6389977148269612 0.6001980208367903 -0.8612911021346206
v 0.3328752658473694 0.2891216483373866 -0.8612911021346201
v 0.3328752658473694 0.6001980208367903 -0.8612911021346206
v 0.6389977148269615 4.00915291308792 0.3475257464586139
v 0.638997714826961 4.00915291308792 0.6528921310567565
v 0.33287526584736976 4.00915291308792 0.3475257464586134
v 0.3328752658473692 4.00915291308792 0.6528921310567559
v 0.6389977148269613 3.8847223640881587 0.3475257464586139
v 0.6389977148269608 3.8847223640881587 0.6528921310567565
v 0.33287526584736954 3.884722364088159 0.3475257464586134
v 0.332875265847369 3.884722364088159 0.6528921310567559
v -0.9870558261758406 0.2891216483373862 0.36181803629106746
v -0.9870558261758406 0.6001980208367899 0.3618180362910668
v -0.9870558261758409 0.28912164833738685 0.66718442088921
v -0.9870558261758409 0.6001980208367905 0.6671844208892094
v -0.864606846584004 0.2891216483373862 0.36181803629106746
v -0.864606846584004 0.6001980208367899 0.3618180362910668
v -0.864606846584004 0.28912164833738685 0.66718442088921
v -0.864606846584004 0.6001980208367905 0.6671844208892094
v 1.8904951942323225 0.2891216483373862 0.36181803629106746
v 1.8904951942323225 0.6001980208367899 0.3618180362910668
v 1.8904951942323223 0.28912164833738685 0.66718442088921
v 1.8904951942323223 0.6001980208367905 0.6671844208892094
v 2.012944173824159 0.2891216483373862 0.36181803629106746
v 2.012944173824159 0.6001980208367899 0.3618180362910668
v 2.012944173824159 0.28912164833738685 0.66718442088921
v 2.012944173824159 0.6001980208367905 0.6671844208892094
v -0.9258313363799202 0.07136818758780428 0.14806156707236595
v -0.9258313363799229 0.8179514815863729 0.1480615670723669
v -0.9258313363799224 0.07136818758780317 0.8809408901079099
v -0.9258313363799249 0.817951481586372 0.8809408901079108
v -0.8033823567880838 0.07136818758780472 0.14806156707236628
v -0.8033823567880862 0.8179514815863733 0.14806156707236723
v -0.8033823567880858 0.07136818758780361 0.8809408901079101
v -0.8033823567880884 0.8179514815863724 0.8809408901079112
v 1.8292707044364043 0.07136818758780317 0.14806156707236723
v 1.8292707044364043 0.817951481586372 0.14806156707236573
v 1.829270704436404 0.07136818758780472 0.8809408901079112
v 1.829270704436404 0.8179514815863735 0.8809408901079097
v 1.9517196840282407 0.07136818758780317 0.14806156707236723
v 1.9517196840282407 0.817951481586372 0.14806156707236573
v 1.9517196840282405 0.07136818758780472 0.8809408901079112
v 1.9517196840282405 0.8179514815863735 0.8809408901079097
v 0.14724490451279887 0.07136818758780428 -0.8255152048136705
v 0.14724490451279987 0.8179514815863731 -0.8255152048136714
v 0.8819387820638209 0.07136818758780317 -0.8255152048136665
v 0.881938782063822 0.817951481586372 -0.8255152048136669
v 0.1472449045127996 0.07136818758780428 -0.9476617586529275
v 0.1472449045128006 0.8179514815863729 -0.9476617586529281
v 0.8819387820638217 0.07136818758780317 -0.9476617586529232
v 0.8819387820638227 0.8179514815863718 -0.9476617586529241
v 1.9696519219147788 0.13358346208768213 1.965967584828767
v 1.9696519219147788 0.13358346208768213 -0.9655497073134016
v 1.9696519219147788 0.009152913087920655 1.965967584828767
v 1.9696519219147788 0.009152913087920655 -0.9655497073134016
v -0.9691235882893028 0.13358346208768213 1.965967584828767
v -0.9691235882893028 0.13358346208768213 -0.9655497073134016
v -0.9691235882893028 0.009152913087920655 1.965967584828767
v -0.9691235882893028 0.009152913087920655 -0.9655497073134016
vt 0.341796875 1
vt 0.169921875 1
vt 0.169921875 0.7734375
vt 0.341796875 0.7734375
vt 0.33984375 0.7734375
vt 0.33984375 1
vt 0.171875 1
vt 0.171875 0.7734375
vt 0.34375 0.45703125
vt 0.51171875 0.45703125
vt 0.51171875 0.625
vt 0.34375 0.625
vt 0.16796875 0.37109375
vt 0.16796875 0.5390625
vt 0 0.5390625
vt 0 0.37109375
vt 0.33984375 0.7734375
vt 0.33984375 1
vt 0.171875 1
vt 0.171875 0.7734375
vt 0.33886434364705226 0.999271578349899
vt 0.17090183873316483 1
vt 0.16894815635294774 0.774165921650101
vt 0.33691066126683517 0.7727175019544228
vt 0.23046875 0.5390625
vt 0.21484375 0.5390625
vt 0.21484375 0.3046875
vt 0.23046875 0.3046875
vt 0.25 0.3046875
vt 0.25 0.5390625
vt 0.234375 0.5390625
vt 0.234375 0.3046875
vt 0.62890625 0.42578125
vt 0.64453125 0.42578125
vt 0.64453125 0.44140625
vt 0.62890625 0.44140625
vt 0.64453125 0.40625
vt 0.64453125 0.421875
vt 0.62890625 0.421875
vt 0.62890625 0.40625
vt 0.26953125 0.3046875
vt 0.26953125 0.5390625
vt 0.25390625 0.5390625
vt 0.25390625 0.3046875
vt 0.2890625 0.5390625
vt 0.2734375 0.5390625
vt 0.2734375 0.3046875
vt 0.2890625 0.3046875
vt 0.30859375 0.5390625
vt 0.29296875 0.5390625
vt 0.29296875 0.3046875
vt 0.30859375 0.3046875
vt 0.328125 0.3046875
vt 0.328125 0.5390625
vt 0.3125 0.5390625
vt 0.3125 0.3046875
vt 0.62890625 0.38671875
vt 0.64453125 0.38671875
vt 0.64453125 0.40234375
vt 0.62890625 0.40234375
vt 0.64453125 0.3671875
vt 0.64453125 0.3828125
vt 0.62890625 0.3828125
vt 0.62890625 0.3671875
vt 0.53125 0.2421875
vt 0.53125 0.4765625
vt 0.515625 0.4765625
vt 0.515625 0.2421875
vt 0.546875 1
vt 0.53125 1
vt 0.53125 0.765625
vt 0.546875 0.765625
vt 0.55078125 0.4765625
vt 0.53515625 0.4765625
vt 0.53515625 0.2421875
vt 0.55078125 0.2421875
vt 0.34765625 0.21875
vt 0.34765625 0.453125
vt 0.33203125 0.453125
vt 0.33203125 0.21875
vt 0 0.3515625
vt 0.015625 0.3515625
vt 0.015625 0.3671875
vt 0 0.3671875
vt 0.03515625 0.3515625
vt 0.03515625 0.3671875
vt 0.01953125 0.3671875
vt 0.01953125 0.3515625
vt 0.3671875 0.21875
vt 0.3671875 0.453125
vt 0.3515625 0.453125
vt 0.3515625 0.21875
vt 0.38671875 0.453125
vt 0.37109375 0.453125
vt 0.37109375 0.21875
vt 0.38671875 0.21875
vt 0.40625 0.453125
vt 0.390625 0.453125
vt 0.390625 0.21875
vt 0.40625 0.21875
vt 0.42578125 0.21875
vt 0.42578125 0.453125
vt 0.41015625 0.453125
vt 0.41015625 0.21875
vt 0.0390625 0.3515625
vt 0.0546875 0.3515625
vt 0.0546875 0.3671875
vt 0.0390625 0.3671875
vt 0.07421875 0.3515625
vt 0.07421875 0.3671875
vt 0.05859375 0.3671875
vt 0.05859375 0.3515625
vt 0.4453125 0.21875
vt 0.4453125 0.453125
vt 0.4296875 0.453125
vt 0.4296875 0.21875
vt 0.46484375 0.453125
vt 0.44921875 0.453125
vt 0.44921875 0.21875
vt 0.46484375 0.21875
vt 0.515625 0.59765625
vt 0.515625 0.57421875
vt 0.76171875 0.57421875
vt 0.76171875 0.59765625
vt 0.515625 0.546875
vt 0.76171875 0.546875
vt 0.76171875 0.5703125
vt 0.515625 0.5703125
vt 0.57421875 0.3515625
vt 0.58984375 0.3515625
vt 0.58984375 0.375
vt 0.57421875 0.375
vt 0.625 0.828125
vt 0.625 0.8046875
vt 0.640625 0.8046875
vt 0.640625 0.828125
vt 0.2109375 0.29296875
vt 0.2109375 0.5375644193279953
vt 0.1953125 0.5376022129658862
vt 0.1953125 0.29300654267219084
vt 0.7609886064829431 0.48046875
vt 0.7609508128450522 0.49609375
vt 0.5163551435170569 0.49609375
vt 0.5163929361892478 0.48046875
vt 0.58203125 0.66015625
vt 0.58203125 0.62890625
vt 0.62890625 0.62890625
vt 0.62890625 0.66015625
vt 0.6015625 0.96875
vt 0.6484375 0.96875
vt 0.6484375 1
vt 0.6015625 1
vt 0.58203125 0.6640625
vt 0.62890625 0.6640625
vt 0.62890625 0.6953125
vt 0.58203125 0.6953125
vt 0.53125 0.66015625
vt 0.53125 0.62890625
vt 0.578125 0.62890625
vt 0.578125 0.66015625
vt 0.55078125 0.953125
vt 0.59765625 0.953125
vt 0.59765625 1
vt 0.55078125 1
vt 0.55078125 0.84765625
vt 0.55078125 0.80078125
vt 0.59765625 0.80078125
vt 0.59765625 0.84765625
vt 0.515625 0.625
vt 0.515625 0.6015625
vt 0.76171875 0.6015625
vt 0.76171875 0.625
vt 0.515625 0.51953125
vt 0.76171875 0.51953125
vt 0.76171875 0.54296875
vt 0.515625 0.54296875
vt 0.5546875 0.3515625
vt 0.5703125 0.3515625
vt 0.5703125 0.375
vt 0.5546875 0.375
vt 0.625 0.85546875
vt 0.625 0.83203125
vt 0.640625 0.83203125
vt 0.640625 0.85546875
vt 0.5163929483959525 0.5
vt 0.7609886186899598 0.5
vt 0.7609508006377236 0.515625
vt 0.5163551313100402 0.515625
vt 0.18898080001427092 0.5390625
vt 0.17369374777333704 0.5390625
vt 0.17430057778900473 0.29296875
vt 0.18958750222666296 0.29296875
vt 0.55078125 0.94921875
vt 0.55078125 0.90234375
vt 0.59765625 0.90234375
vt 0.59765625 0.94921875
vt 0.5546875 0.37890625
vt 0.6015625 0.37890625
vt 0.6015625 0.42578125
vt 0.5546875 0.42578125
vt 0.33203125 0.4921875
vt 0.33984375 0.4921875
vt 0.33984375 0.5390625
vt 0.33203125 0.5390625
vt 0.6015625 0.84765625
vt 0.6015625 0.80078125
vt 0.609375 0.80078125
vt 0.609375 0.84765625
vt 0.60546875 0.46875
vt 0.65234375 0.46875
vt 0.65234375 0.4765625
vt 0.60546875 0.4765625
vt 0.6171875 0.46484375
vt 0.6171875 0.45703125
vt 0.6640625 0.45703125
vt 0.6640625 0.46484375
vt 0.6015625 0.91796875
vt 0.6015625 0.8984375
vt 0.62109375 0.8984375
vt 0.62109375 0.91796875
vt 0.6015625 0.89453125
vt 0.6015625 0.875
vt 0.62109375 0.875
vt 0.62109375 0.89453125
vt 0.08984375 0.34765625
vt 0.09765625 0.34765625
vt 0.09765625 0.3671875
vt 0.08984375 0.3671875
vt 0.33203125 0.48828125
vt 0.33203125 0.46875
vt 0.33984375 0.46875
vt 0.33984375 0.48828125
vt 0.1484375 0.359375
vt 0.16796875 0.359375
vt 0.16796875 0.3671875
vt 0.1484375 0.3671875
vt 0.55078125 0.7734375
vt 0.55078125 0.765625
vt 0.5703125 0.765625
vt 0.5703125 0.7734375
vt 0.6015625 0.89453125
vt 0.6015625 0.875
vt 0.62109375 0.875
vt 0.62109375 0.89453125
vt 0.6015625 0.8515625
vt 0.62109375 0.8515625
vt 0.62109375 0.87109375
vt 0.6015625 0.87109375
vt 0.078125 0.34765625
vt 0.0859375 0.34765625
vt 0.0859375 0.3671875
vt 0.078125 0.3671875
vt 0.59375 0.375
vt 0.59375 0.35546875
vt 0.6015625 0.35546875
vt 0.6015625 0.375
vt 0.125 0.359375
vt 0.14453125 0.359375
vt 0.14453125 0.3671875
vt 0.125 0.3671875
vt 0.1015625 0.3671875
vt 0.1015625 0.359375
vt 0.12109375 0.359375
vt 0.12109375 0.3671875
vt 0.6015625 0.89453125
vt 0.6015625 0.875
vt 0.62109375 0.875
vt 0.62109375 0.89453125
vt 0.4921875 0.40625
vt 0.4921875 0.38671875
vt 0.51171875 0.38671875
vt 0.51171875 0.40625
vt 0.65625 0.86328125
vt 0.65625 0.87109375
vt 0.63671875 0.87109375
vt 0.63671875 0.86328125
vt 0.6484375 0.36328125
vt 0.62890625 0.36328125
vt 0.62890625 0.35546875
vt 0.6484375 0.35546875
vt 0.65234375 0.63671875
vt 0.6328125 0.63671875
vt 0.6328125 0.62890625
vt 0.65234375 0.62890625
vt 0.65625 0.875
vt 0.65625 0.8828125
vt 0.63671875 0.8828125
vt 0.63671875 0.875
vt 0.6015625 0.89453125
vt 0.6015625 0.875
vt 0.62109375 0.875
vt 0.62109375 0.89453125
vt 0.4921875 0.43359375
vt 0.51171875 0.43359375
vt 0.51171875 0.453125
vt 0.4921875 0.453125
vt 0.6328125 0.734375
vt 0.640625 0.734375
vt 0.640625 0.75390625
vt 0.6328125 0.75390625
vt 0.6328125 0.80078125
vt 0.6328125 0.78125
vt 0.640625 0.78125
vt 0.640625 0.80078125
vt 0.6328125 0.70703125
vt 0.6328125 0.6875
vt 0.640625 0.6875
vt 0.640625 0.70703125
vt 0.6328125 0.6640625
vt 0.640625 0.6640625
vt 0.640625 0.68359375
vt 0.6328125 0.68359375
vt 0.4921875 0.4296875
vt 0.4921875 0.41015625
vt 0.51171875 0.41015625
vt 0.51171875 0.4296875
vt 0.6015625 0.89453125
vt 0.6015625 0.875
vt 0.62109375 0.875
vt 0.62109375 0.89453125
vt 0.6328125 0.7109375
vt 0.640625 0.7109375
vt 0.640625 0.73046875
vt 0.6328125 0.73046875
vt 0.6328125 0.77734375
vt 0.6328125 0.7578125
vt 0.640625 0.7578125
vt 0.640625 0.77734375
vt 0.6328125 0.66015625
vt 0.6328125 0.640625
vt 0.640625 0.640625
vt 0.640625 0.66015625
vt 0.63671875 0.88671875
vt 0.64453125 0.88671875
vt 0.64453125 0.90625
vt 0.63671875 0.90625
vt 0.5546875 0.42578125
vt 0.5546875 0.37890625
vt 0.6015625 0.37890625
vt 0.6015625 0.42578125
vt 0.5546875 0.4296875
vt 0.6015625 0.4296875
vt 0.6015625 0.4765625
vt 0.5546875 0.4765625
vt 0.4921875 0.3359375
vt 0.5 0.3359375
vt 0.5 0.3828125
vt 0.4921875 0.3828125
vt 0.50390625 0.3828125
vt 0.50390625 0.3359375
vt 0.51171875 0.3359375
vt 0.51171875 0.3828125
vt 0.625 0.91015625
vt 0.671875 0.91015625
vt 0.671875 0.91796875
vt 0.625 0.91796875
vt 0.625 0.44140625
vt 0.6171875 0.44140625
vt 0.6171875 0.39453125
vt 0.625 0.39453125
vt 0.53125 0.76171875
vt 0.53125 0.71484375
vt 0.578125 0.71484375
vt 0.578125 0.76171875
vt 0.5546875 0.37890625
vt 0.6015625 0.37890625
vt 0.6015625 0.42578125
vt 0.5546875 0.42578125
vt 0.60546875 0.41796875
vt 0.61328125 0.41796875
vt 0.61328125 0.46484375
vt 0.60546875 0.46484375
vt 0.60546875 0.4140625
vt 0.60546875 0.3671875
vt 0.61328125 0.3671875
vt 0.61328125 0.4140625
vt 0.61328125 0.84765625
vt 0.61328125 0.80078125
vt 0.62109375 0.80078125
vt 0.62109375 0.84765625
vt 0.46875 0.3359375
vt 0.4765625 0.3359375
vt 0.4765625 0.3828125
vt 0.46875 0.3828125
vt 0.58203125 0.796875
vt 0.58203125 0.75
vt 0.62890625 0.75
vt 0.62890625 0.796875
vt 0.5546875 0.37890625
vt 0.6015625 0.37890625
vt 0.6015625 0.42578125
vt 0.5546875 0.42578125
vt 0.6171875 0.34375
vt 0.625 0.34375
vt 0.625 0.390625
vt 0.6171875 0.390625
vt 0.625 0.90625
vt 0.625 0.859375
vt 0.6328125 0.859375
vt 0.6328125 0.90625
vt 0.48828125 0.3359375
vt 0.48828125 0.3828125
vt 0.48046875 0.3828125
vt 0.48046875 0.3359375
vt 0.6640625 0.4453125
vt 0.6640625 0.453125
vt 0.6171875 0.453125
vt 0.6171875 0.4453125
vt 0.78515625 0.96484375
vt 0.6015625 0.96484375
vt 0.6015625 0.95703125
vt 0.78515625 0.95703125
vt 0.78515625 0.9453125
vt 0.78515625 0.953125
vt 0.6015625 0.953125
vt 0.6015625 0.9453125
vt 0.34375 0.81640625
vt 0.52734375 0.81640625
vt 0.52734375 1
vt 0.34375 1
vt 0.52734375 0.62890625
vt 0.52734375 0.8125
vt 0.34375 0.8125
vt 0.34375 0.62890625
vt 0.78515625 0.93359375
vt 0.78515625 0.94140625
vt 0.6015625 0.94140625
vt 0.6015625 0.93359375
vt 0.78515625 0.9296875
vt 0.6015625 0.9296875
vt 0.6015625 0.921875
vt 0.78515625 0.921875
vn 1 0 0
vn -1 0 0
vn 0 1 0
vn 0 -1 0
vn 0 0 1
vn 0 0 -1
vn 1 0 0
vn -1 0 0
vn 0 1 0
vn 0 -1 0
vn 0 0 1
vn 0 0 -1
vn 1 0 0
vn -1 0 0
vn 0 1 0
vn 0 -1 0
vn 0 0 1
vn 0 0 -1
vn 1 0 0
vn -1 0 0
vn 0 1 0
vn 0 -1 0
vn 0 0 1
vn 0 0 -1
vn 1 0 0
vn -1 0 0
vn 0 1 0
vn 0 -1 0
vn 0 0 1
vn 0 0 -1
vn 0.7062319518809316 1.6845087022950347e-15 0.7079805294938906
vn -0.7062319518809316 -1.8239140247396236e-15 -0.7079805294938906
vn -0.7062319518809315 1.7099193981933998e-15 0.7079805294938908
vn 0.7062319518809318 -8.422543511475181e-16 -0.7079805294938903
vn -8.81541495031828e-16 -1 8.837241259918149e-16
vn 9.616816309438121e-16 1 -9.640626829001616e-16
vn 4.533410683886044e-16 -1.672955868077188e-15 -1
vn -4.533410683886046e-16 1.7844862592823324e-15 1
vn 1 1.0813118448895763e-30 6.05951342726756e-16
vn -1 -9.461478642783795e-31 -5.302074248859115e-16
vn -8.241078873097711e-31 -1 1.8178540281802677e-15
vn 1.0988105164130284e-30 1 -2.4238053709070243e-15
vn 0.7062319518809316 -8.422543511475197e-16 -0.7079805294938907
vn -0.7062319518809316 1.823914024739623e-15 0.7079805294938906
vn 0.7062319518809314 8.3596059467232845e-16 0.7079805294938907
vn -0.7062319518809319 -8.422543511475192e-16 -0.7079805294938902
vn 8.815414950318288e-16 -1 8.837241259918141e-16
vn 1.6829428541516735e-15 1 -3.4545579470589134e-15
vn 3.0222737892573643e-16 -1.4870718827352774e-15 -1
vn -3.022273789257364e-16 1.7844862592823324e-15 1
vn 1 0 0
vn -1 -6.758199030559849e-31 -4.54463507045067e-16
vn -5.494052582065141e-31 -1 1.817854028180268e-15
vn 1.0988105164130303e-30 1 -3.635708056360543e-15
vn 7.253457094217689e-16 -2.141383511138799e-15 -1
vn 0 1.427589007425866e-15 1
vn 1 1.9463613208012425e-30 9.089270140901372e-16
vn -1 -6.487871069337465e-31 -4.544635070450679e-16
vn -1.3185726196956417e-30 -1 1.817854028180275e-15
vn 0 1 -1.8178540281802713e-15
vn 7.253457094217689e-16 -2.141383511138799e-15 -1
vn -7.253457094217692e-16 2.141383511138799e-15 1
vn 1 1.9463613208012394e-30 9.089270140901358e-16
vn -1 -6.487871069337465e-31 -4.544635070450679e-16
vn -1.3185726196956393e-30 -1 1.8178540281802713e-15
vn 0 1 -1.8178540281802713e-15
vn 0 1 0
vn -1.4506914188435377e-15 -1 -2.6371452393912726e-30
vn 1 -1.7844862592823324e-15 1.7269613267712542e-15
vn -1 1.7844862592823383e-15 -1.8178540281802673e-15
vn 1.7226960598767013e-15 -3.2359236292313554e-30 -1
vn -1.8133642735544222e-15 3.2359236292313554e-30 1
vn -1 -1.5570890566409881e-30 -7.27141611272107e-16
vn 1 0 0
vn 0 -2.141383511138799e-15 -1
vn 0 2.0521591981746823e-15 1
vn 0 -1 2.181424833816321e-15
vn 0 1 -2.181424833816321e-15
vn -1 -1.5570890566409881e-30 -7.27141611272107e-16
vn 1 0 0
vn 0 -2.141383511138799e-15 -1
vn 0 2.0521591981746823e-15 1
vn 0 -1 2.181424833816321e-15
vn 0 1 -2.181424833816321e-15
vn -1 -3.5689725185646625e-15 -3.0297567136337773e-15
vn 1 3.271558142017606e-15 2.7267810422703996e-15
vn 2.720046410331636e-15 1.2640111003249955e-15 -1
vn -2.720046410331631e-15 -1.338364694461758e-15 1
vn 3.626728547108859e-15 -1 -1.5148783568168748e-15
vn -3.626728547108851e-15 1 1.211902685453499e-15
vn -1 -6.082379127503845e-31 -3.029756713633772e-16
vn 1 6.307652428522506e-31 3.029756713633772e-16
vn 0 -2.007547041692624e-15 -1
vn 0 2.007547041692624e-15 1
vn 0 -1 2.1208296995436407e-15
vn 0 1 -2.1208296995436407e-15
vn -5.440092820663253e-15 1.1896575061882288e-15 1
vn 5.742320199588989e-15 -8.922431296411743e-16 -1
vn -1 1.3383646944617423e-15 -5.9080255915858714e-15
vn 1 -1.4127182885985098e-15 5.9080255915858825e-15
vn -1.5111368946286819e-15 -1 -8.790484131304226e-30
vn 1.511136894628693e-15 1 -1.8178540281802626e-15
vn 1 0 0
vn -1 0 0
vn 0 1 0
vn 0 -1 0
vn 0 0 1
vn 0 0 -1
usemtl m_ee68adca-f990-3233-b720-f52e6e37fac8
f 2/1/1 1/2/1 3/3/1 4/4/1
f 7/5/2 5/6/2 6/7/2 8/8/2
f 5/9/3 1/10/3 2/11/3 6/12/3
f 4/13/4 3/14/4 7/15/4 8/16/4
f 3/17/5 1/18/5 5/19/5 7/20/5
f 6/21/6 2/22/6 4/23/6 8/24/6
f 10/25/7 9/26/7 11/27/7 12/28/7
f 15/29/8 13/30/8 14/31/8 16/32/8
f 13/33/9 9/34/9 10/35/9 14/36/9
f 12/37/10 11/38/10 15/39/10 16/40/10
f 11/41/11 9/42/11 13/43/11 15/44/11
f 14/45/12 10/46/12 12/47/12 16/48/12
f 18/49/13 17/50/13 19/51/13 20/52/13
f 23/53/14 21/54/14 22/55/14 24/56/14
f 21/57/15 17/58/15 18/59/15 22/60/15
f 20/61/16 19/62/16 23/63/16 24/64/16
f 19/65/17 17/66/17 21/67/17 23/68/17
f 22/69/18 18/70/18 20/71/18 24/72/18
f 26/73/19 25/74/19 27/75/19 28/76/19
f 31/77/20 29/78/20 30/79/20 32/80/20
f 29/81/21 25/82/21 26/83/21 30/84/21
f 28/85/22 27/86/22 31/87/22 32/88/22
f 27/89/23 25/90/23 29/91/23 31/92/23
f 30/93/24 26/94/24 28/95/24 32/96/24
f 34/97/25 33/98/25 35/99/25 36/100/25
f 39/101/26 37/102/26 38/103/26 40/104/26
f 37/105/27 33/106/27 34/107/27 38/108/27
f 36/109/28 35/110/28 39/111/28 40/112/28
f 35/113/29 33/114/29 37/115/29 39/116/29
f 38/117/30 34/118/30 36/119/30 40/120/30
f 42/121/31 41/122/31 43/123/31 44/124/31
f 47/125/32 45/126/32 46/127/32 48/128/32
f 45/129/33 41/130/33 42/131/33 46/132/33
f 44/133/34 43/134/34 47/135/34 48/136/34
f 43/137/35 41/138/35 45/139/35 47/140/35
f 46/141/36 42/142/36 44/143/36 48/144/36
f 50/145/37 49/146/37 51/147/37 52/148/37
f 55/149/38 53/150/38 54/151/38 56/152/38
f 53/153/39 49/154/39 50/155/39 54/156/39
f 52/157/40 51/158/40 55/159/40 56/160/40
f 51/161/41 49/162/41 53/163/41 55/164/41
f 54/165/42 50/166/42 52/167/42 56/168/42
f 58/169/43 57/170/43 59/171/43 60/172/43
f 63/173/44 61/174/44 62/175/44 64/176/44
f 61/177/45 57/178/45 58/179/45 62/180/45
f 60/181/46 59/182/46 63/183/46 64/184/46
f 59/185/47 57/186/47 61/187/47 63/188/47
f 62/189/48 58/190/48 60/191/48 64/192/48
f 66/193/49 65/194/49 67/195/49 68/196/49
f 71/197/50 69/198/50 70/199/50 72/200/50
f 69/201/51 65/202/51 66/203/51 70/204/51
f 68/205/52 67/206/52 71/207/52 72/208/52
f 67/209/53 65/210/53 69/211/53 71/212/53
f 70/213/54 66/214/54 68/215/54 72/216/54
f 74/217/55 73/218/55 75/219/55 76/220/55
f 79/221/56 77/222/56 78/223/56 80/224/56
f 77/225/57 73/226/57 74/227/57 78/228/57
f 76/229/58 75/230/58 79/231/58 80/232/58
f 75/233/59 73/234/59 77/235/59 79/236/59
f 78/237/60 74/238/60 76/239/60 80/240/60
f 82/241/61 81/242/61 83/243/61 84/244/61
f 87/245/62 85/246/62 86/247/62 88/248/62
f 85/249/63 81/250/63 82/251/63 86/252/63
f 84/253/64 83/254/64 87/255/64 88/256/64
f 83/257/65 81/258/65 85/259/65 87/260/65
f 86/261/66 82/262/66 84/263/66 88/264/66
f 90/265/67 89/266/67 91/267/67 92/268/67
f 95/269/68 93/270/68 94/271/68 96/272/68
f 93/273/69 89/274/69 90/275/69 94/276/69
f 92/277/70 91/278/70 95/279/70 96/280/70
f 91/281/71 89/282/71 93/283/71 95/284/71
f 94/285/72 90/286/72 92/287/72 96/288/72
f 98/289/73 97/290/73 99/291/73 100/292/73
f 103/293/74 101/294/74 102/295/74 104/296/74
f 101/297/75 97/298/75 98/299/75 102/300/75
f 100/301/76 99/302/76 103/303/76 104/304/76
f 99/305/77 97/306/77 101/307/77 103/308/77
f 102/309/78 98/310/78 100/311/78 104/312/78
f 106/313/79 105/314/79 107/315/79 108/316/79
f 111/317/80 109/318/80 110/319/80 112/320/80
f 109/321/81 105/322/81 106/323/81 110/324/81
f 108/325/82 107/326/82 111/327/82 112/328/82
f 107/329/83 105/330/83 109/331/83 111/332/83
f 110/333/84 106/334/84 108/335/84 112/336/84
f 114/337/85 113/338/85 115/339/85 116/340/85
f 119/341/86 117/342/86 118/343/86 120/344/86
f 117/345/87 113/346/87 114/347/87 118/348/87
f 116/349/88 115/350/88 119/351/88 120/352/88
f 115/353/89 113/354/89 117/355/89 119/356/89
f 118/357/90 114/358/90 116/359/90 120/360/90
f 122/361/91 121/362/91 123/363/91 124/364/91
f 127/365/92 125/366/92 126/367/92 128/368/92
f 125/369/93 121/370/93 122/371/93 126/372/93
f 124/373/94 123/374/94 127/375/94 128/376/94
f 123/377/95 121/378/95 125/379/95 127/380/95
f 126/381/96 122/382/96 124/383/96 128/384/96
f 130/385/97 129/386/97 131/387/97 132/388/97
f 135/389/98 133/390/98 134/391/98 136/392/98
f 133/393/99 129/394/99 130/395/99 134/396/99
f 132/397/100 131/398/100 135/399/100 136/400/100
f 131/401/101 129/402/101 133/403/101 135/404/101
f 134/405/102 130/406/102 132/407/102 136/408/102
f 138/409/103 137/410/103 139/411/103 140/412/103
f 143/413/104 141/414/104 142/415/104 144/416/104
f 141/417/105 137/418/105 138/419/105 142/420/105
f 140/421/106 139/422/106 143/423/106 144/424/106
f 139/425/107 137/426/107 141/427/107 143/428/107
f 142/429/108 138/430/108 140/431/108 144/432/108