# Made in Blockbench 5.1.4
mtllib metalworking_press_upper_stage1.mtl

o Cube_Cube.000
v 0.875 0.3035714285714286 0.875
v 0.125 0.3035714285714286 0.875
v 0.125 0.3035714285714286 0.125
v 1 0.3035714285714286 0.125
v 1 0.3035714285714286 0.875
v 0.25 0.5892857142857142 0.75
v 0.25 0.5892857142857142 0.25
v 0 0.5892857142857142 0.125
v 0.75 0.5892857142857142 0.75
v 0.125 0.5892857142857142 1
v 0.75 0.5892857142857142 0.25
v 1 0.5892857142857142 0.875
v 0.875 0.5892857142857142 0
v 0.125 0.3035714285714286 0
v 0.875 0.3035714285714286 0
v 0.875 0.3035714285714286 0.125
v 0 0.3035714285714286 0.875
v 0.875 0.3035714285714286 1
v 0.125 0.3035714285714286 1
v 0 0.5892857142857142 0.875
v 0 0.5892857142857142 1
v 0.875 0.5892857142857142 1
v 0.125 0.5892857142857142 0
v 1 0.5892857142857142 0.125
v 0.75 1.1875 0.75
v 0.25 1.1875 0.75
v 0.25 1.1875 0.25
v 0.75 1.1875 0.25
v 0 0.3035714285714286 0.125
v 0 0.3035714285714286 1
v 1 0.3035714285714286 1
v 1 0.5892857142857142 1
v 1 0.3035714285714286 0
v 1 0.5892857142857142 0
v 0 0.5892857142857142 0
v 0 0.3035714285714286 0
v 0 -0.125 0
v 0.125 -0.125 0.125
v 0 -0.125 0.125
v 0.125 -0.125 0
v 0.9968735651608286 -0.125 0.0031264348391714103
v 0.9968735651608286 -0.125 0.1281264348391714
v 0.8718735651608286 -0.125 0.1281264348391714
v 0.8718735651608286 -0.125 0.0031264348391714103
v 0.875 0.3035714285714286 0.875
v 5.551115123125783e-17 0.3035714285714286 0.875
v 0.875 0.3035714285714286 1
v 0.12500000000000006 0.3035714285714286 1
v 0.12500000000000006 0.3035714285714286 0.875
v 1 0.3035714285714286 0.875
v 5.551115123125783e-17 0.3035714285714286 1
v 1 0.3035714285714286 1
v 1 -0.125 1
v 0.875 -0.125 0.875
v 1 -0.125 0.875
v 0.875 -0.125 1
v 0.003126434839171466 -0.125 0.9968735651608287
v 0.003126434839171466 -0.125 0.8718735651608287
v 0.12812643483917147 -0.125 0.8718735651608287
v 0.12812643483917147 -0.125 0.9968735651608287
vt 0.21875 0.96875
vt 0.03125 0.96875
vt 0.03125 0.78125
vt 0.25 0.78125
vt 0.25 0.96875
vt 0.21875 0.96875
vt 0.0625 0.5625
vt 0.0625 0.6875
vt 0 0.71875
vt 0.1875 0.5625
vt 0.0625 0.5625
vt 0.03125 0.5
vt 0.1875 0.6875
vt 0.1875 0.5625
vt 0.25 0.53125
vt 0.0625 0.6875
vt 0.1875 0.6875
vt 0.21875 0.75
vt 0.03125 0.75
vt 0.21875 0.75
vt 0.21875 0.78125
vt 0.03125 0.78125
vt 0.03125 0.96875
vt 0 0.96875
vt 0.21875 1
vt 0.03125 1
vt 0.03125 0.96875
vt 0 0.53125
vt 0 0.5
vt 0.03125 0.5
vt 0.25 0.53125
vt 0.1875 0.5625
vt 0.21875 0.5
vt 0 0.71875
vt 0.0625 0.6875
vt 0.03125 0.75
vt 0.21875 0.75
vt 0.1875 0.6875
vt 0.25 0.71875
vt 0.625 0.647321875
vt 0.625 0.796875
vt 0.5 0.796875
vt 0.609375 0.484375
vt 0.609375 0.359375
vt 0.734375 0.359375
vt 0.484375 0.31919687500000005
vt 0.484375 0.46875
vt 0.359375 0.46875
vt 0.609375 0.31919687500000005
vt 0.609375 0.46875
vt 0.484375 0.46875
vt 0.6875 0.49107187500000005
vt 0.6875 0.640625
vt 0.5625 0.640625
vt 0.46875 0.9285703125
vt 0.46875 1
vt 0.28125 1
vt 0.640625 1
vt 0.640625 0.9285703125
vt 0.828125 0.9285703125
vt 0.640625 0.921875
vt 0.640625 0.8504453125
vt 0.828125 0.8504453125
vt 0.28125 0.8125
vt 0.28125 0.7410703125
vt 0.46875 0.7410703125
vt 0.46875 1
vt 0.46875 0.9285703125
vt 0.5 0.9285703125
vt 0.640625 1
vt 0.609375 1
vt 0.609375 0.9285703125
vt 0.609375 0.8504453125
vt 0.640625 0.8504453125
vt 0.640625 0.921875
vt 0.859375 0.9285703125
vt 0.859375 1
vt 0.828125 1
vt 0.25 0.7410703125
vt 0.28125 0.7410703125
vt 0.28125 0.8125
vt 0.859375 0.8504453125
vt 0.859375 0.921875
vt 0.828125 0.921875
vt 0.21875 0.78125
vt 0.21875 0.96875
vt 0.03125 0.78125
vt 0.21875 0.78125
vt 0.25 0.78125
vt 0.21875 0.96875
vt 0 0.53125
vt 0.0625 0.5625
vt 0 0.71875
vt 0.21875 0.5
vt 0.1875 0.5625
vt 0.03125 0.5
vt 0.25 0.71875
vt 0.1875 0.6875
vt 0.25 0.53125
vt 0.03125 0.75
vt 0.0625 0.6875
vt 0.21875 0.75
vt 0.03125 0.78125
vt 0.03125 0.75
vt 0.21875 0.78125
vt 0 0.78125
vt 0.03125 0.78125
vt 0 0.96875
vt 0.21875 0.96875
vt 0.21875 1
vt 0.03125 0.96875
vt 0.0625 0.5625
vt 0 0.53125
vt 0.03125 0.5
vt 0.25 0.5
vt 0.25 0.53125
vt 0.21875 0.5
vt 0 0.75
vt 0 0.71875
vt 0.03125 0.75
vt 0.25 0.75
vt 0.21875 0.75
vt 0.25 0.71875
vt 0.5 0.647321875
vt 0.625 0.647321875
vt 0.5 0.796875
vt 0.734375 0.484375
vt 0.609375 0.484375
vt 0.734375 0.359375
vt 0.359375 0.31919687500000005
vt 0.484375 0.31919687500000005
vt 0.359375 0.46875
vt 0.484375 0.31919687500000005
vt 0.609375 0.31919687500000005
vt 0.484375 0.46875
vt 0.5625 0.49107187500000005
vt 0.6875 0.49107187500000005
vt 0.5625 0.640625
vt 0.28125 0.9285703125
vt 0.46875 0.9285703125
vt 0.28125 1
vt 0.828125 1
vt 0.640625 1
vt 0.828125 0.9285703125
vt 0.828125 0.921875
vt 0.640625 0.921875
vt 0.828125 0.8504453125
vt 0.5 1
vt 0.46875 1
vt 0.5 0.9285703125
vt 0.640625 0.9285703125
vt 0.640625 1
vt 0.609375 0.9285703125
vt 0.609375 0.921875
vt 0.609375 0.8504453125
vt 0.640625 0.921875
vt 0.828125 0.9285703125
vt 0.859375 0.9285703125
vt 0.828125 1
vt 0.25 0.8125
vt 0.25 0.7410703125
vt 0.28125 0.8125
vt 0.828125 0.8504453125
vt 0.859375 0.8504453125
vt 0.828125 0.921875
vt 0.28125 0.9285703125
vt 0.28125 1
vt 0.25 1
vt 0.46875 0.8125
vt 0.46875 0.7410703125
vt 0.5 0.7410703125
vt 0.46875 0.8125
vt 0.28125 0.8125
vt 0.46875 0.7410703125
vt 0.25 0.9285703125
vt 0.28125 0.9285703125
vt 0.25 1
vt 0.5 0.8125
vt 0.46875 0.8125
vt 0.5 0.7410703125
vt 0 1
vt 0 0.96875
vt 0.03125 0.96875
vt 0.03125 1
vt 0.25 0.9285703125
vt 0.25 0.821428125
vt 0.28125 0.821428125
vt 0.28125 0.9285703125
vt 0.4375 0.8125
vt 0.4375 0.921875
vt 0.40625 0.921875
vt 0.40625 0.8125
vt 0.46875 0.7410703125
vt 0.46875 0.633928125
vt 0.5 0.633928125
vt 0.5 0.7410703125
vt 0.4375 0.625
vt 0.4375 0.734375
vt 0.40625 0.734375
vt 0.40625 0.625
vt 0.25 0.75
vt 0.25 0.78125
vt 0.21875 0.78125
vt 0.21875 0.75
vt 0.3125 0.671875
vt 0.3125 0.703125
vt 0.28125 0.703125
vt 0.28125 0.671875
vt 0.7333762865723431 0.65625
vt 0.7331484365902863 0.6875
vt 0.6259987134276569 0.6875
vt 0.6262265634097137 0.65625
vt 0.3268984365902863 0.375
vt 0.21974871342765687 0.375
vt 0.2199765634097137 0.34375
vt 0.3271262865723431 0.34375
vt 0.25 0.390625
vt 0.25 0.4977747231626294
vt 0.21875 0.4980025731446862
vt 0.21875 0.3908528499820568
vt 0.116796875 0.671875
vt 0.085546875 0.671875
vt 0.086328125 0.5625
vt 0.117578125 0.5625
vt 0.34375 0.671875
vt 0.34375 0.703125
vt 0.3125 0.703125
vt 0.3125 0.671875
vt 0.46875 0.921875
vt 0.46875 0.8125
vt 0.5 0.8125
vt 0.5 0.921875
vt 0.390625 0.46875
vt 0.390625 0.578125
vt 0.359375 0.578125
vt 0.359375 0.46875
vt 0.4375 0.921875
vt 0.4375 0.8125
vt 0.46875 0.8125
vt 0.46875 0.921875
vt 0.46875 0.625
vt 0.46875 0.734375
vt 0.4375 0.734375
vt 0.4375 0.625
vt 0.28125 0.671875
vt 0.28125 0.640625
vt 0.3125 0.640625
vt 0.3125 0.671875
vt 0.7177512865723431 0.328125
vt 0.7175234365902863 0.359375
vt 0.6103737134276569 0.359375
vt 0.6106015634097137 0.328125
vt 0.7331484365902863 0.71875
vt 0.6259987134276569 0.71875
vt 0.6262265634097137 0.6875
vt 0.7333762865723431 0.6875
vt 0.359375 0.265625
vt 0.359375 0.3727747231626294
vt 0.328125 0.3730025731446862
vt 0.328125 0.2658528499820568
vt 0.163671875 0.671875
vt 0.132421875 0.671875
vt 0.133203125 0.5625
vt 0.164453125 0.5625
vn 0 -1 0
vn 0 -1 0
vn 0 1 0
vn 0 1 0
vn 0 1 0
vn 0 1 0
vn 0 -1 0
vn 0 -1 0
vn 0 -1 0
vn 0 1 0
vn 0 1 0
vn 0 1 0
vn 0 1 0
vn 0 0 1
vn 0 1 0
vn -1 0 0
vn 1 0 0
vn 0 0 -1
vn -1 0 0
vn 0 0 1
vn 1 0 0
vn 0 0 -1
vn -1 0 0
vn 0 0 1
vn 1 0 0
vn 0 0 1
vn 0 0 -1
vn 1 0 0
vn 0 -1 0
vn 0 -1 0
vn 0 1 0
vn 0 1 0
vn 0 1 0
vn 0 1 0
vn 0 -1 0
vn 0 -1 0
vn 0 -1 0
vn 0 1 0
vn 0 1 0
vn 0 1 0
vn 0 1 0
vn 0 0 1
vn 0 1 0
vn -1 0 0
vn 1 0 0
vn 0 0 -1
vn -1 0 0
vn 0 0 1
vn 1 0 0
vn -1 0 0
vn 0 0 1
vn 1 0 0
vn 0 0 1
vn 0 0 -1
vn 1 0 0
vn -1 0 0
vn 0 0 -1
vn 0 0 -1
vn -1 0 0
vn 0 0 -1
vn 0 1 0
vn -1 0 0
vn 0 0 1
vn 0 0 -1
vn 1 0 0
vn 0 -1 0
vn 0 -1 0
vn 0.9999733924427933 -0.007294820522214338 0
vn 0 0.007294820522214338 0.9999733924427933
vn 0 -0.007294820522214338 -0.9999733924427933
vn -0.9999733924427933 0.007294820522214338 0
vn 0 1 0
vn 1 0 -8.881784197001252e-16
vn 0 0 -1
vn 0 0 1
vn -1 0 0
vn 0 -1 0
vn -0.9999733924427933 -0.007294820522214339 0
vn 0 0.007294820522214338 -0.9999733924427933
vn 8.864201101227905e-16 -0.007294820522214202 0.9999733924427933
vn 0.9999733924427933 0.007294820522214338 0
usemtl m_a6181b25-6a91-49b1-45e6-e0ef12435cbe
f 1/1/1 2/2/1 3/3/1
f 4/4/2 5/5/2 1/6/2
f 6/7/3 7/8/3 8/9/3
f 9/10/4 6/11/4 10/12/4
f 11/13/5 9/14/5 12/15/5
f 7/16/6 11/17/6 13/18/6
f 14/19/7 15/20/7 16/21/7
f 3/22/8 2/23/8 17/24/8
f 18/25/9 19/26/9 2/27/9
f 20/28/10 21/29/10 10/30/10
f 12/31/11 9/32/11 22/33/11
f 8/34/12 7/35/12 23/36/12
f 13/37/13 11/38/13 24/39/13
f 9/40/14 25/41/14 26/42/14
f 27/43/15 26/44/15 25/45/15
f 6/46/16 26/47/16 27/48/16
f 11/49/17 28/50/17 25/51/17
f 7/52/18 27/53/18 28/54/18
f 17/55/19 20/56/19 8/57/19
f 10/58/20 19/59/20 18/60/20
f 12/61/21 5/62/21 4/63/21
f 13/64/22 15/65/22 14/66/22
f 20/67/23 17/68/23 30/69/23
f 10/70/24 21/71/24 30/72/24
f 31/73/25 5/74/25 12/75/25
f 31/76/26 32/77/26 22/78/26
f 33/79/27 15/80/27 13/81/27
f 33/82/28 34/83/28 24/84/28
f 16/85/29 1/86/29 3/87/29
f 16/88/30 4/89/30 1/90/30
f 20/91/31 6/92/31 8/93/31
f 22/94/32 9/95/32 10/96/32
f 24/97/33 11/98/33 12/99/33
f 23/100/34 7/101/34 13/102/34
f 3/103/35 14/104/35 16/105/35
f 29/106/36 3/107/36 17/108/36
f 1/109/37 18/110/37 2/111/37
f 6/112/38 20/113/38 10/114/38
f 32/115/39 12/116/39 22/117/39
f 35/118/40 8/119/40 23/120/40
f 34/121/41 13/122/41 24/123/41
f 6/124/42 9/125/42 26/126/42
f 28/127/43 27/128/43 25/129/43
f 7/130/44 6/131/44 27/132/44
f 9/133/45 11/134/45 25/135/45
f 11/136/46 7/137/46 28/138/46
f 29/139/47 17/140/47 8/141/47
f 22/142/48 10/143/48 18/144/48
f 24/145/49 12/146/49 4/147/49
f 21/148/50 20/149/50 30/150/50
f 19/151/51 10/152/51 30/153/51
f 32/154/52 31/155/52 12/156/52
f 18/157/53 31/158/53 22/159/53
f 34/160/54 33/161/54 13/162/54
f 4/163/55 33/164/55 24/165/55
f 29/166/56 8/167/56 35/168/56
f 23/169/57 14/170/57 36/171/57
f 23/172/58 13/173/58 14/174/58
f 36/175/59 29/176/59 35/177/59
f 35/178/60 23/179/60 36/180/60
f 37/181/61 39/182/61 38/183/61 40/184/61
f 36/185/62 37/186/62 39/187/62 29/188/62
f 38/189/63 3/190/63 29/191/63 39/192/63
f 14/193/64 40/194/64 37/195/64 36/196/64
f 40/197/65 14/198/65 3/199/65 38/200/65
f 33/201/66 4/202/66 16/203/66 15/204/66
f 41/205/67 42/206/67 43/207/67 44/208/67
f 33/209/68 4/210/68 42/211/68 41/212/68
f 16/213/69 43/214/69 42/215/69 4/216/69
f 44/217/70 15/218/70 33/219/70 41/220/70
f 16/221/71 15/222/71 44/223/71 43/224/71
f 53/225/72 55/226/72 54/227/72 56/228/72
f 52/229/73 53/230/73 55/231/73 50/232/73
f 54/233/74 45/234/74 50/235/74 55/236/74
f 47/237/75 56/238/75 53/239/75 52/240/75
f 56/241/76 47/242/76 45/243/76 54/244/76
f 57/245/77 58/246/77 59/247/77 60/248/77
f 51/249/78 46/250/78 58/251/78 57/252/78
f 49/253/79 59/254/79 58/255/79 46/256/79
f 60/257/80 48/258/80 51/259/80 57/260/80
f 49/261/81 48/262/81 60/263/81 59/264/81
o Cube.001_Cube.002
v 0.29166666666666663 0.30255999999999994 0.7083333333333334
v 0.29166666666666663 1.0681850000000002 0.7083333333333334
v 0.29166666666666663 1.0681850000000002 0.29166666666666663
v 0.7083333333333334 0.30255999999999994 0.7083333333333334
v 0.7083333333333334 1.0681850000000002 0.7083333333333334
v 0.29166666666666663 0.30255999999999994 0.29166666666666663
v 0.7083333333333334 1.0681850000000002 0.29166666666666663
v 0.1875 0.30255999999999994 0.1875
v 0.7083333333333334 0.30255999999999994 0.29166666666666663
v 0.8125 0.30255999999999994 0.8125
v 0.1875 0.30255999999999994 0.8125
v 0.1875 0.19318499999999994 0.8125
v 0.8125 0.19318499999999994 0.1875
v 0.8125 0.30255999999999994 0.1875
v 0.8125 0.19318499999999994 0.8125
v 0.1875 0.19318499999999994 0.1875
vt 0.3567703125 0.38671875
vt 0.3567703125 0.578125
vt 0.2526046875 0.578125
vt 0.10677031249999999 0.30859375
vt 0.10677031249999999 0.5
vt 0.002604687500000001 0.5
vt 0.6067703125 0.80859375
vt 0.6067703125 1
vt 0.5026046875 1
vt 0.4036453125 0.817709375
vt 0.4036453125 0.921875
vt 0.2994796875 0.921875
vt 0.25 0.734375
vt 0.2760421875 0.7083328125
vt 0.3802078125 0.7083328125
vt 0.3802078125 0.7083328125
vt 0.3802078125 0.6041671875
vt 0.40625 0.578125
vt 0.3802078125 0.6041671875
vt 0.2760421875 0.6041671875
vt 0.25 0.578125
vt 0.2760421875 0.6041671875
vt 0.2760421875 0.7083328125
vt 0.25 0.734375
vt 0.765625 0.81640625
vt 0.765625 0.84375
vt 0.609375 0.84375
vt 0.78125 0.78515625
vt 0.78125 0.8125
vt 0.625 0.8125
vt 0.78125 0.75390625
vt 0.78125 0.78125
vt 0.625 0.78125
vt 0.78125 0.72265625
vt 0.78125 0.75
vt 0.625 0.75
vt 0.2161453125 0.30859375
vt 0.2161453125 0.5
vt 0.11197968750000001 0.5
vt 0.40625 0.625
vt 0.40625 0.46875
vt 0.5625 0.46875
vt 0.2526046875 0.38671875
vt 0.3567703125 0.38671875
vt 0.2526046875 0.578125
vt 0.002604687500000001 0.30859375
vt 0.10677031249999999 0.30859375
vt 0.002604687500000001 0.5
vt 0.5026046875 0.80859375
vt 0.6067703125 0.80859375
vt 0.5026046875 1
vt 0.2994796875 0.817709375
vt 0.4036453125 0.817709375
vt 0.2994796875 0.921875
vt 0.40625 0.734375
vt 0.25 0.734375
vt 0.3802078125 0.7083328125
vt 0.40625 0.734375
vt 0.3802078125 0.7083328125
vt 0.40625 0.578125
vt 0.40625 0.578125
vt 0.3802078125 0.6041671875
vt 0.25 0.578125
vt 0.25 0.578125
vt 0.2760421875 0.6041671875
vt 0.25 0.734375
vt 0.609375 0.81640625
vt 0.765625 0.81640625
vt 0.609375 0.84375
vt 0.625 0.78515625
vt 0.78125 0.78515625
vt 0.625 0.8125
vt 0.625 0.75390625
vt 0.78125 0.75390625
vt 0.625 0.78125
vt 0.625 0.72265625
vt 0.78125 0.72265625
vt 0.625 0.75
vt 0.11197968750000001 0.30859375
vt 0.2161453125 0.30859375
vt 0.11197968750000001 0.5
vt 0.5625 0.625
vt 0.40625 0.625
vt 0.5625 0.46875
vn -1 0 0
vn 0 0 1
vn 0 0 -1
vn 0 1 0
vn 0 1 0
vn 0 1 0
vn 0 1 0
vn 0 1 0
vn -1 0 0
vn 1 0 0
vn 0 0 1
vn 0 0 -1
vn 1 0 0
vn 0 -1 0
vn -1 0 0
vn 0 0 1
vn 0 0 -1
vn 0 1 0
vn 0 1 0
vn 0 1 0
vn 0 1 0
vn 0 1 0
vn -1 0 0
vn 1 0 0
vn 0 0 1
vn 0 0 -1
vn 1 0 0
vn 0 -1 0
usemtl m_a6181b25-6a91-49b1-45e6-e0ef12435cbe
f 61/265/82 62/266/82 63/267/82
f 64/268/83 65/269/83 62/270/83
f 66/271/84 63/272/84 67/273/84
f 65/274/85 67/275/85 63/276/85
f 68/277/86 66/278/86 69/279/86
f 69/280/87 64/281/87 70/282/87
f 64/283/88 61/284/88 71/285/88
f 61/286/89 66/287/89 68/288/89
f 72/289/90 71/290/90 68/291/90
f 73/292/91 74/293/91 70/294/91
f 75/295/92 70/296/92 71/297/92
f 76/298/93 68/299/93 74/300/93
f 69/301/94 67/302/94 65/303/94
f 72/304/95 76/305/95 73/306/95
f 66/307/96 61/308/96 63/309/96
f 61/310/97 64/311/97 62/312/97
f 69/313/98 66/314/98 67/315/98
f 62/316/99 65/317/99 63/318/99
f 74/319/100 68/320/100 69/321/100
f 74/322/101 69/323/101 70/324/101
f 70/325/102 64/326/102 71/327/102
f 71/328/103 61/329/103 68/330/103
f 76/331/104 72/332/104 68/333/104
f 75/334/105 73/335/105 70/336/105
f 72/337/106 75/338/106 71/339/106
f 73/340/107 76/341/107 74/342/107
f 64/343/108 69/344/108 65/345/108
f 75/346/109 72/347/109 73/348/109
o crank
v 1.2402524115546671 0.875 1.1518640639063484
v 0.7541164994889156 0.875 0.6657281518405971
v 1.2402524115546671 0.75 1.1518640639063484
v 0.7541164994889156 0.75 0.6657281518405971
v 1.1518640639063484 0.875 1.240252411554667
v 0.6657281518405971 0.875 0.7541164994889156
v 1.1518640639063484 0.75 1.240252411554667
v 0.6657281518405971 0.75 0.7541164994889156
v 0.9308931947855523 0.875 0.48895145654396016
v 0.48895145654396016 0.875 0.047009718302368
v 0.9308931947855523 0.75 0.48895145654396016
v 0.48895145654396016 0.75 0.047009718302368
v 0.4889514565439602 0.875 0.9308931947855523
v 0.047009718302368 0.875 0.4889514565439602
v 0.4889514565439602 0.75 0.9308931947855523
v 0.047009718302368 0.75 0.4889514565439602
vt 0.6875 0.9375
vt 0.6875 1
vt 0.34375 1
vt 0.34375 0.9375
vt 0.6875 0.84375
vt 0.6875 0.90625
vt 0.34375 0.90625
vt 0.34375 0.84375
vt 0.40625 0.46875
vt 0.40625 0.8125
vt 0.34375 0.8125
vt 0.34375 0.46875
vt 0.5 0.46875
vt 0.5 0.8125
vt 0.4375 0.8125
vt 0.4375 0.46875
vt 0.40625 0.375
vt 0.40625 0.4375
vt 0.34375 0.4375
vt 0.34375 0.375
vt 0.5 0.375
vt 0.5 0.4375
vt 0.4375 0.4375
vt 0.4375 0.375
vt 0.84375 0.75
vt 0.84375 0.8125
vt 0.53125 0.8125
vt 0.53125 0.75
vt 0.84375 0.65625
vt 0.84375 0.71875
vt 0.53125 0.71875
vt 0.53125 0.65625
vt 0.3125 0.6875
vt 0.3125 1
vt 0 1
vt 0 0.6875
vt 0.3125 0.34375
vt 0.3125 0.65625
vt 0 0.65625
vt 0 0.34375
vt 0.84375 0.5625
vt 0.84375 0.625
vt 0.53125 0.625
vt 0.53125 0.5625
vt 0.84375 0.46875
vt 0.84375 0.53125
vt 0.53125 0.53125
vt 0.53125 0.46875
vn 0.7071067811865475 0 -0.7071067811865476
vn -0.7071067811865475 0 0.7071067811865476
vn 0 1 0
vn 0 -1 0
vn 0.7071067811865476 0 0.7071067811865475
vn -0.7071067811865476 0 -0.7071067811865475
vn 0.7071067811865475 0 -0.7071067811865476
vn -0.7071067811865475 0 0.7071067811865476
vn 0 1 0
vn 0 -1 0
vn 0.7071067811865476 0 0.7071067811865475
vn -0.7071067811865476 0 -0.7071067811865475
usemtl m_ed140bfb-1551-d1a0-983d-ecfad6976f84
f 80/349/110 78/350/110 77/351/110 79/352/110
f 83/353/111 81/354/111 82/355/111 84/356/111
f 77/357/112 78/358/112 82/359/112 81/360/112
f 80/361/113 79/362/113 83/363/113 84/364/113
f 79/365/114 77/366/114 81/367/114 83/368/114
f 84/369/115 82/370/115 78/371/115 80/372/115
f 88/373/116 86/374/116 85/375/116 87/376/116
f 91/377/117 89/378/117 90/379/117 92/380/117
f 85/381/118 86/382/118 90/383/118 89/384/118
f 88/385/119 87/386/119 91/387/119 92/388/119
f 87/389/120 85/390/120 89/391/120 91/392/120
f 92/393/121 90/394/121 86/395/121 88/396/121