# Made in Blockbench 5.1.4
mtllib metalworking_press_lower.mtl

o mesh
v 1 1.0006249999999999 1
v 1 1.0006249999999999 1
v 1 1.0006249999999999 0
v 1 1.0006249999999999 0
v 0 1.0006249999999999 1
v 0 1.0006249999999999 0
v 0 1.0006249999999999 1
v 0 1.0006249999999999 0
v 0.875 0 0
v 1 0 0
v 1 0 0.125
v 0.875 0 0.875
v 1 0 0.875
v 1 0 1
v 0 0 0.875
v 0.125 0 0.875
v 0.125 0 1
v 0 0 0
v 0.125 0 0
v 0.125 0 0.125
v 0.125 1 0.125
v 0.125 1 0.875
v 0.875 1 0.875
v 1 1 0.875
v 1 1 0.125
v 0.875 1 0.125
v 0.875 1 0
v 0.125 1 0
v 0 1 0.125
v 0.125 1 1
v 0.875 1 1
v 0.125 0.875 1
v 1 0.875 0.875
v 0.875 0.875 0
v 0 1 0.875
v 0 0.875 0.125
v 0.125 0.875 0.875
v 0.125 0 0.875
v 0.875 0 0.875
v 0.125 0.875 0.125
v 0.125 0 0.125
v 0.125 0.875 0
v 0.875 0 0.125
v 0 0 0.125
v 0.875 0.875 0.875
v 0.875 0.875 0.125
v 1 0.875 0.125
v 0 0.875 0.875
v 0.875 0.875 1
v 1 1 0
v 1 0.875 0
v 1 1 1
v 1 0.875 1
v 0 1 1
v 0 0.875 1
v 0 0.875 0
v 0 1 0
v 0.875 0 1
v 0.875 0 0.125
v 0 0 1
vt 0 0.7489754098360656
vt 0 0.7489754098360656
vt 0 1
vt 0 1
vt 0 0.7489754098360656
vt 0 1
vt 0 0.7489754098360656
vt 0 1
vt 0 0.7489754098360656
vt 0.2490079365079365 0.7489754098360656
vt 0.2490079365079365 1
vt 0 1
vt 0.24900793650793632 0.7484349447922847
vt 0.000009274798436396452 0.7495158546609474
vt 0 0.9994595349562189
vt 0.24900793650793632 0.9994595349562188
vt 0.2490079365079365 1
vt 0 1
vt 0.2490079365079365 1
vt 0 1
vt 0.2490079365079365 1
vt 0.2490079365079365 1
vt 0 1
vt 0 1
vt 0.42020089285714285 0.6391521516393444
vt 0.45132688492063494 0.6391521516393444
vt 0.45132688492063494 0.6705302254098361
vt 0.42020089285714285 0.5920850409836066
vt 0.45132688492063494 0.5920850409836066
vt 0.45132688492063494 0.6234631147540983
vt 0.42020089285714285 0.5450179303278688
vt 0.45132688492063494 0.5450179303278688
vt 0.45132688492063494 0.5763960040983607
vt 0.42020089285714285 0.4979508196721312
vt 0.45132688492063494 0.4979508196721312
vt 0.45132688492063494 0.529328893442623
vt 0.2956969246031746 0.9686219262295082
vt 0.2956969246031746 0.7803534836065573
vt 0.482452876984127 0.7803534836065573
vt 0.5135788690476191 0.7803534836065573
vt 0.5135788690476191 0.9686219262295082
vt 0.482452876984127 0.9686219262295082
vt 0.482452876984127 1
vt 0.2956969246031746 1
vt 0.2956969246031746 0.9686219262295082
vt 0.2956969246031746 0.7803534836065573
vt 0.2956969246031746 0.9686219262295082
vt 0.26457093253968256 0.9686219262295082
vt 0.482452876984127 0.7803534836065573
vt 0.2956969246031746 0.7803534836065573
vt 0.2956969246031746 0.7489754098360656
vt 0.482452876984127 0.7332863729508197
vt 0.2956969246031746 0.7332863729508197
vt 0.2956969246031746 0.7019082991803278
vt 0.21788194444444445 0.46657274590163933
vt 0.031125992063492064 0.46657274590163933
vt 0.031125992063492064 0.4351946721311476
vt 0.7470238095238095 1
vt 0.5602678571428572 1
vt 0.5602678571428572 0.9686219262295082
vt 0.482452876984127 0.46657274590163933
vt 0.2956969246031746 0.46657274590163933
vt 0.2956969246031746 0.4351946721311476
vt 0.09337797619047619 0.40381659836065575
vt 0.06225198412698413 0.40381659836065575
vt 0.06225198412698413 0.18417008196721318
vt 0.7314608134920635 0.7332863729508197
vt 0.7314608134920635 0.5136398565573771
vt 0.9182167658730159 0.5136398565573771
vt 0.7314608134920635 0.7489754098360656
vt 0.7314608134920635 0.529328893442623
vt 0.9182167658730159 0.529328893442623
vt 0.1400669642857143 0.40381659836065575
vt 0.10894097222222222 0.40381659836065575
vt 0.10894097222222222 0.18417008196721318
vt 0.7314608134920635 0.5136398565573771
vt 0.9182167658730159 0.5136398565573771
vt 0.9182167658730159 0.7332863729508197
vt 0.5291418650793651 0.2626152663934427
vt 0.5291418650793651 0.07434682377049184
vt 0.7158978174603174 0.07434682377049184
vt 0.15562996031746032 0.18417008196721318
vt 0.18675595238095238 0.18417008196721318
vt 0.18675595238095238 0.40381659836065575
vt 0.3268229166666667 0.6705302254098361
vt 0.3268229166666667 0.48226178278688525
vt 0.3579489087301587 0.48226178278688525
vt 0.98046875 1
vt 0.7937127976190477 1
vt 0.7937127976190477 0.9686219262295082
vt 0.40463789682539686 0.48226178278688525
vt 0.40463789682539686 0.6705302254098361
vt 0.37351190476190477 0.6705302254098361
vt 0.7937127976190477 0.9215548155737705
vt 0.98046875 0.9215548155737705
vt 0.98046875 0.9529328893442623
vt 0.3579489087301587 0.40381659836065575
vt 0.3268229166666667 0.40381659836065575
vt 0.3268229166666667 0.18417008196721318
vt 0.7314608134920635 0.5136398565573771
vt 0.9182167658730159 0.5136398565573771
vt 0.9182167658730159 0.7332863729508197
vt 0.5602678571428572 1
vt 0.5291418650793651 1
vt 0.5291418650793651 0.9686219262295082
vt 0.2490079365079365 0.4351946721311476
vt 0.2490079365079365 0.46657274590163933
vt 0.21788194444444445 0.46657274590163933
vt 0.031125992063492064 0.46657274590163933
vt 0 0.46657274590163933
vt 0 0.4351946721311476
vt 0.5135788690476191 0.7019082991803278
vt 0.5135788690476191 0.7332863729508197
vt 0.482452876984127 0.7332863729508197
vt 0.2956969246031746 0.7332863729508197
vt 0.26457093253968256 0.7332863729508197
vt 0.26457093253968256 0.7019082991803278
vt 0.5135788690476191 0.4351946721311476
vt 0.5135788690476191 0.46657274590163933
vt 0.482452876984127 0.46657274590163933
vt 0.7781498015873016 0.9686219262295082
vt 0.7781498015873016 1
vt 0.7470238095238095 1
vt 0.2956969246031746 0.46657274590163933
vt 0.26457093253968256 0.46657274590163933
vt 0.26457093253968256 0.4351946721311476
vt 0.5135788690476191 0.7019082991803278
vt 0.482452876984127 0.7019082991803278
vt 0.482452876984127 0.48226178278688525
vt 0.031125992063492064 0.21554815573770492
vt 0.031125992063492064 0.4351946721311476
vt 0 0.4351946721311476
vt 0.2490079365079365 0.4351946721311476
vt 0.21788194444444445 0.4351946721311476
vt 0.21788194444444445 0.21554815573770492
vt 0.5602678571428572 0.7489754098360656
vt 0.5602678571428572 0.9686219262295082
vt 0.5291418650793651 0.9686219262295082
vt 0.7781498015873016 0.9686219262295082
vt 0.7470238095238095 0.9686219262295082
vt 0.7470238095238095 0.7489754098360656
vt 0.2956969246031746 0.21554815573770492
vt 0.2956969246031746 0.4351946721311476
vt 0.26457093253968256 0.4351946721311476
vt 0.5135788690476191 0.4351946721311476
vt 0.482452876984127 0.4351946721311476
vt 0.482452876984127 0.21554815573770492
vt 0.2956969246031746 0.48226178278688525
vt 0.2956969246031746 0.7019082991803278
vt 0.26457093253968256 0.7019082991803278
vt 0.40463789682539686 0.40381659836065575
vt 0.37351190476190477 0.40381659836065575
vt 0.37351190476190477 0.18417008196721318
vt 0.45132688492063494 0.40381659836065575
vt 0.42020089285714285 0.40381659836065575
vt 0.42020089285714285 0.18417008196721318
vt 0.7625868055555556 0.04296875
vt 0.7625868055555556 0.2626152663934427
vt 0.7314608134920635 0.2626152663934427
vt 0.8092757936507937 0.04296875
vt 0.8092757936507937 0.2626152663934427
vt 0.7781498015873016 0.2626152663934427
vt 0.42020089285714285 0.6705302254098361
vt 0.42020089285714285 0.6391521516393444
vt 0.45132688492063494 0.6705302254098361
vt 0.42020089285714285 0.6234631147540983
vt 0.42020089285714285 0.5920850409836066
vt 0.45132688492063494 0.6234631147540983
vt 0.42020089285714285 0.5763960040983607
vt 0.42020089285714285 0.5450179303278688
vt 0.45132688492063494 0.5763960040983607
vt 0.42020089285714285 0.529328893442623
vt 0.42020089285714285 0.4979508196721312
vt 0.45132688492063494 0.529328893442623
vt 0.482452876984127 0.9686219262295082
vt 0.2956969246031746 0.9686219262295082
vt 0.482452876984127 0.7803534836065573
vt 0.482452876984127 0.7803534836065573
vt 0.5135788690476191 0.7803534836065573
vt 0.482452876984127 0.9686219262295082
vt 0.482452876984127 0.9686219262295082
vt 0.482452876984127 1
vt 0.2956969246031746 0.9686219262295082
vt 0.26457093253968256 0.7803534836065573
vt 0.2956969246031746 0.7803534836065573
vt 0.26457093253968256 0.9686219262295082
vt 0.482452876984127 0.7489754098360656
vt 0.482452876984127 0.7803534836065573
vt 0.2956969246031746 0.7489754098360656
vt 0.482452876984127 0.7019082991803278
vt 0.482452876984127 0.7332863729508197
vt 0.2956969246031746 0.7019082991803278
vt 0.21788194444444445 0.4351946721311476
vt 0.21788194444444445 0.46657274590163933
vt 0.031125992063492064 0.4351946721311476
vt 0.7470238095238095 0.9686219262295082
vt 0.7470238095238095 1
vt 0.5602678571428572 0.9686219262295082
vt 0.482452876984127 0.4351946721311476
vt 0.482452876984127 0.46657274590163933
vt 0.2956969246031746 0.4351946721311476
vt 0.09337797619047619 0.18417008196721318
vt 0.09337797619047619 0.40381659836065575
vt 0.06225198412698413 0.18417008196721318
vt 0.9182167658730159 0.7332863729508197
vt 0.7314608134920635 0.7332863729508197
vt 0.9182167658730159 0.5136398565573771
vt 0.9182167658730159 0.7489754098360656
vt 0.7314608134920635 0.7489754098360656
vt 0.9182167658730159 0.529328893442623
vt 0.1400669642857143 0.18417008196721318
vt 0.1400669642857143 0.40381659836065575
vt 0.10894097222222222 0.18417008196721318
vt 0.7314608134920635 0.7332863729508197
vt 0.7314608134920635 0.5136398565573771
vt 0.9182167658730159 0.7332863729508197
vt 0.7158978174603174 0.2626152663934427
vt 0.5291418650793651 0.2626152663934427
vt 0.7158978174603174 0.07434682377049184
vt 0.15562996031746032 0.40381659836065575
vt 0.15562996031746032 0.18417008196721318
vt 0.18675595238095238 0.40381659836065575
vt 0.3579489087301587 0.6705302254098361
vt 0.3268229166666667 0.6705302254098361
vt 0.3579489087301587 0.48226178278688525
vt 0.98046875 0.9686219262295082
vt 0.98046875 1
vt 0.7937127976190477 0.9686219262295082
vt 0.37351190476190477 0.48226178278688525
vt 0.40463789682539686 0.48226178278688525
vt 0.37351190476190477 0.6705302254098361
vt 0.7937127976190477 0.9529328893442623
vt 0.7937127976190477 0.9215548155737705
vt 0.98046875 0.9529328893442623
vt 0.3579489087301587 0.18417008196721318
vt 0.3579489087301587 0.40381659836065575
vt 0.3268229166666667 0.18417008196721318
vt 0.7314608134920635 0.7332863729508197
vt 0.7314608134920635 0.5136398565573771
vt 0.9182167658730159 0.7332863729508197
vt 0.5602678571428572 0.9686219262295082
vt 0.5602678571428572 1
vt 0.5291418650793651 0.9686219262295082
vt 0.21788194444444445 0.4351946721311476
vt 0.2490079365079365 0.4351946721311476
vt 0.21788194444444445 0.46657274590163933
vt 0.031125992063492064 0.4351946721311476
vt 0.031125992063492064 0.46657274590163933
vt 0 0.4351946721311476
vt 0.482452876984127 0.7019082991803278
vt 0.5135788690476191 0.7019082991803278
vt 0.482452876984127 0.7332863729508197
vt 0.2956969246031746 0.7019082991803278
vt 0.2956969246031746 0.7332863729508197
vt 0.26457093253968256 0.7019082991803278
vt 0.482452876984127 0.4351946721311476
vt 0.5135788690476191 0.4351946721311476
vt 0.482452876984127 0.46657274590163933
vt 0.7470238095238095 0.9686219262295082
vt 0.7781498015873016 0.9686219262295082
vt 0.7470238095238095 1
vt 0.2956969246031746 0.4351946721311476
vt 0.2956969246031746 0.46657274590163933
vt 0.26457093253968256 0.4351946721311476
vt 0.5135788690476191 0.48226178278688525
vt 0.5135788690476191 0.7019082991803278
vt 0.482452876984127 0.48226178278688525
vt 0 0.21554815573770492
vt 0.031125992063492064 0.21554815573770492
vt 0 0.4351946721311476
vt 0.2490079365079365 0.21554815573770492
vt 0.2490079365079365 0.4351946721311476
vt 0.21788194444444445 0.21554815573770492
vt 0.5291418650793651 0.7489754098360656
vt 0.5602678571428572 0.7489754098360656
vt 0.5291418650793651 0.9686219262295082
vt 0.7781498015873016 0.7489754098360656
vt 0.7781498015873016 0.9686219262295082
vt 0.7470238095238095 0.7489754098360656
vt 0.26457093253968256 0.21554815573770492
vt 0.2956969246031746 0.21554815573770492
vt 0.26457093253968256 0.4351946721311476
vt 0.5135788690476191 0.21554815573770492
vt 0.5135788690476191 0.4351946721311476
vt 0.482452876984127 0.21554815573770492
vt 0.26457093253968256 0.48226178278688525
vt 0.2956969246031746 0.48226178278688525
vt 0.26457093253968256 0.7019082991803278
vt 0.40463789682539686 0.18417008196721318
vt 0.40463789682539686 0.40381659836065575
vt 0.37351190476190477 0.18417008196721318
vt 0.45132688492063494 0.18417008196721318
vt 0.45132688492063494 0.40381659836065575
vt 0.42020089285714285 0.18417008196721318
vt 0.7314608134920635 0.04296875
vt 0.7625868055555556 0.04296875
vt 0.7314608134920635 0.2626152663934427
vt 0.7781498015873016 0.04296875
vt 0.8092757936507937 0.04296875
vt 0.7781498015873016 0.2626152663934427
vn 0 0 0
vn 0 0 0
vn 0 1 0
vn 0 -1 0
vn 0 0 0
vn 0 0 0
vn 0 -1 0
vn 0 -1 0
vn 0 -1 0
vn 0 -1 0
vn 0 1 0
vn 0 1 0
vn 0 1 0
vn 0 1 0
vn 0 1 0
vn 0 0 1
vn 1 0 0
vn 0 0 -1
vn -1 0 0
vn 1 0 0
vn 0 0 1
vn -1 0 0
vn 1 0 0
vn 0 0 -1
vn 0 -1 0
vn 0 0 1
vn 0 -1 0
vn 0 -1 0
vn 0 -1 0
vn 0 -1 0
vn 0 0 -1
vn 1 0 0
vn 0 0 -1
vn 1 0 0
vn 1 0 0
vn 0 0 1
vn 0 0 1
vn -1 0 0
vn 0 0 -1
vn -1 0 0
vn 0 0 1
vn 1 0 0
vn 1 0 0
vn 0 0 -1
vn 0 0 -1
vn -1 0 0
vn -1 0 0
vn 0 0 1
vn 0 0 -1
vn -1 0 0
vn -1 0 0
vn 0 0 1
vn 0 -1 0
vn 0 -1 0
vn 0 -1 0
vn 0 -1 0
vn 0 1 0
vn 0 1 0
vn 0 1 0
vn 0 1 0
vn 0 1 0
vn 0 0 1
vn 1 0 0
vn 0 0 -1
vn -1 0 0
vn 1 0 0
vn 0 0 1
vn -1 0 0
vn 1 0 0
vn 0 0 -1
vn 0 -1 0
vn 0 0 1
vn 0 -1 0
vn 0 -1 0
vn 0 -1 0
vn 0 -1 0
vn 0 0 -1
vn 1 0 0
vn 0 0 -1
vn 1 0 0
vn 1 0 0
vn 0 0 1
vn 0 0 1
vn -1 0 0
vn 0 0 -1
vn -1 0 0
vn 0 0 1
vn 1 0 0
vn 1 0 0
vn 0 0 -1
vn 0 0 -1
vn -1 0 0
vn -1 0 0
vn 0 0 1
vn 0 0 -1
vn -1 0 0
vn -1 0 0
vn 0 0 1
usemtl m_f17f3e40-2753-cc20-178b-1336ab5f7669
f 1/1/1 2/2/1 3/3/1 4/4/1
f 5/5/2 6/6/2 7/7/2 8/8/2
f 5/9/3 1/10/3 3/11/3 6/12/3
f 4/13/4 2/14/4 7/15/4 8/16/4
f 1/17/5 5/18/5 2/19/5 7/20/5
f 3/21/6 4/22/6 6/23/6 8/24/6
f 9/25/7 10/26/7 11/27/7
f 12/28/8 13/29/8 14/30/8
f 15/31/9 16/32/9 17/33/9
f 18/34/10 19/35/10 20/36/10
f 21/37/11 22/38/11 23/39/11
f 24/40/12 25/41/12 26/42/12
f 27/43/13 28/44/13 21/45/13
f 22/46/14 21/47/14 29/48/14
f 23/49/15 22/50/15 30/51/15
f 31/52/16 30/53/16 32/54/16
f 25/55/17 24/56/17 33/57/17
f 28/58/18 27/59/18 34/60/18
f 35/61/19 29/62/19 36/63/19
f 37/64/20 32/65/20 17/66/20
f 37/67/21 38/68/21 39/69/21
f 40/70/22 41/71/22 38/72/22
f 42/73/23 40/74/23 20/75/23
f 43/76/24 41/77/24 40/78/24
f 38/79/25 41/80/25 43/81/25
f 44/82/26 20/83/26 40/84/26
f 45/85/27 46/86/27 47/87/27
f 46/88/28 40/89/28 42/90/28
f 40/91/29 37/92/29 48/93/29
f 37/94/30 45/95/30 49/96/30
f 48/97/31 37/98/31 16/99/31
f 39/100/32 43/101/32 46/102/32
f 27/103/33 50/104/33 51/105/33
f 51/106/34 50/107/34 25/108/34
f 24/109/35 52/110/35 53/111/35
f 53/112/36 52/113/36 31/114/36
f 30/115/37 54/116/37 55/117/37
f 55/118/38 54/119/38 35/120/38
f 56/121/39 57/122/39 28/123/39
f 29/124/40 57/125/40 56/126/40
f 53/127/41 49/128/41 58/129/41
f 13/130/42 33/131/42 53/132/42
f 51/133/43 47/134/43 11/135/43
f 9/136/44 34/137/44 51/138/44
f 56/139/45 42/140/45 19/141/45
f 44/142/46 36/143/46 56/144/46
f 55/145/47 48/146/47 15/147/47
f 17/148/48 32/149/48 55/150/48
f 45/151/49 33/152/49 13/153/49
f 49/154/50 45/155/50 12/156/50
f 59/157/51 46/158/51 34/159/51
f 11/160/52 47/161/52 46/162/52
f 59/163/53 9/164/53 11/165/53
f 58/166/54 12/167/54 14/168/54
f 60/169/55 15/170/55 17/171/55
f 44/172/56 18/173/56 20/174/56
f 26/175/57 21/176/57 23/177/57
f 23/178/58 24/179/58 26/180/58
f 26/181/59 27/182/59 21/183/59
f 35/184/60 22/185/60 29/186/60
f 31/187/61 23/188/61 30/189/61
f 49/190/62 31/191/62 32/192/62
f 47/193/63 25/194/63 33/195/63
f 42/196/64 28/197/64 34/198/64
f 48/199/65 35/200/65 36/201/65
f 16/202/66 37/203/66 17/204/66
f 45/205/67 37/206/67 39/207/67
f 37/208/68 40/209/68 38/210/68
f 19/211/69 42/212/69 20/213/69
f 46/214/70 43/215/70 40/216/70
f 39/217/71 38/218/71 43/219/71
f 36/220/72 44/221/72 40/222/72
f 33/223/73 45/224/73 47/225/73
f 34/226/74 46/227/74 42/228/74
f 36/229/75 40/230/75 48/231/75
f 32/232/76 37/233/76 49/234/76
f 15/235/77 48/236/77 16/237/77
f 45/238/78 39/239/78 46/240/78
f 34/241/79 27/242/79 51/243/79
f 47/244/80 51/245/80 25/246/80
f 33/247/81 24/248/81 53/249/81
f 49/250/82 53/251/82 31/252/82
f 32/253/83 30/254/83 55/255/83
f 48/256/84 55/257/84 35/258/84
f 42/259/85 56/260/85 28/261/85
f 36/262/86 29/263/86 56/264/86
f 14/265/87 53/266/87 58/267/87
f 14/268/88 13/269/88 53/270/88
f 10/271/89 51/272/89 11/273/89
f 10/274/90 9/275/90 51/276/90
f 18/277/91 56/278/91 19/279/91
f 18/280/92 44/281/92 56/282/92
f 60/283/93 55/284/93 15/285/93
f 60/286/94 17/287/94 55/288/94
f 12/289/95 45/290/95 13/291/95
f 58/292/96 49/293/96 12/294/96
f 9/295/97 59/296/97 34/297/97
f 59/298/98 11/299/98 46/300/98